<?xml version="1.0" encoding="utf-8"?>
<!-- Generator: Adobe Illustrator 20.1.0, SVG Export Plug-In . SVG Version: 6.00 Build 0)  -->
<svg version="1.1" id="Layer_1" xmlns="http://www.w3.org/2000/svg" xmlns:xlink="http://www.w3.org/1999/xlink" x="0px" y="0px"
	 viewBox="0 0 565.6 59.2" style="enable-background:new 0 0 565.6 59.2;" xml:space="preserve">
<style type="text/css">
	.st0{fill:#3B2E25;}
</style>
<g>
	<path class="st0" d="M10.9,22.4H2V17h24.4v5.4h-8.9v22.9h-6.6V22.4z"/>
	<path class="st0" d="M29.5,17h6.6v11.1h12.4V17H55v28.3h-6.6V33.5H36.1v11.8h-6.6V17z"/>
	<path class="st0" d="M60.8,17h20.6v5.4h-14v5.7h11.5v5.1H67.4v6.6h14v5.4H60.8V17z"/>
	<path class="st0" d="M93.7,44.8L113.1,6h0.5l18,38.9v0.5h-9.8l-1.8-4.5h-14.7l-1.9,4.5h-9.6V44.8z M117.6,34.1L113,23h-0.1l-5,11.2
		H117.6z"/>
	<path class="st0" d="M134,30.5V7.6h8.5v23.1c0,5.5,2.9,8.1,7.7,8.1c4.8,0,7.6-2.6,7.6-8.1V7.6h8.6v22.9c0,10.5-6.8,15.6-16.2,15.6
		C140.8,46.1,134,41,134,30.5z"/>
	<path class="st0" d="M173.9,7.6h12.3c12.7,0,21.5,6.4,21.5,18.8c0,12.4-8.7,19-21.5,19h-12.3V7.6z M185.9,38.1
		c8.5,0,13-3.7,13-11.7c0-8-4.5-11.6-13-11.6h-3.3v23.3H185.9z"/>
	<path class="st0" d="M213.6,7.6h8.7v37.7h-8.7V7.6z"/>
	<path class="st0" d="M229.4,7.6h27.4v7.2h-18.6v7.7h15.4v6.8h-15.4v8.8h18.6v7.2h-27.4V7.6z"/>
	<path class="st0" d="M264.4,5.9h0.5l26.4,23.8V7.6h7.9v39.2h-0.5l-26.4-23.9v22.4h-7.9V5.9z"/>
	<path class="st0" d="M306.2,26.5c0-12.1,8.3-19.5,19.8-19.5c7.5,0,12.3,3.2,14.8,7.7l-6,5.3c-1.3-3.1-4-5.7-8.6-5.7
		c-6.2,0-10.7,4.6-10.7,12.2c0,7.6,4.4,12.3,10.9,12.3c4.5,0,7.4-2.2,9-4.4l5.1,6c-3,3.2-7.9,5.7-14.4,5.7
		C314.8,46.1,306.2,38.8,306.2,26.5z"/>
	<path class="st0" d="M346.9,7.6h27.4v7.2h-18.7v7.7H371v6.8h-15.4v8.8h18.7v7.2h-27.4V7.6z"/>
	<path class="st0" d="M392.6,26.6c0-12.4,9.1-19.6,20.5-19.6c6.5,0,11.6,2.3,14.4,5.7l-5.1,6c-1.6-2.2-4.7-4.3-9.2-4.3
		c-6.6,0-11.5,4.5-11.5,12.3c0,7.5,4.6,12.2,11.3,12.2c2.7,0,5.2-0.8,6.8-2.2V26.3h8.7v12.9c-2.5,3-8,6.8-16.1,6.8
		C401.4,46.1,392.6,38.8,392.6,26.6z"/>
	<path class="st0" d="M433.5,25.9h15.6V33h-15.6V25.9z"/>
	<path class="st0" d="M454.4,19.5h7.9v5.2c1.1-3.1,4-5.7,7.9-5.7c1.5,0,2.7,0.4,3.4,0.8l-2.1,8.1c-0.9-0.8-2.1-1.5-3.9-1.5
		c-3.1,0-5.1,2.1-5.1,6v13h-8.1V19.5z"/>
	<path class="st0" d="M475.3,38.6c0-5.7,4-8.4,12.8-8.6c2.8-0.1,3.6-0.6,3.6-2.1c0-1.3-1.3-2.6-4.7-2.6c-3.6,0-5.4,1.7-6.6,2.7
		l-4.2-5c2.4-2.4,6.4-4,11.6-4c8.3,0,11.9,3.4,11.9,10v12.7c0,1.3,0.2,1.8,0.9,2.5l0.6,0.6v0.5h-9.4v-3.5c-1.2,2.5-4.3,4.3-8.1,4.3
		C478.9,46.1,475.3,43.1,475.3,38.6z M491.6,35.5v-1.8c-0.4,0.2-1.7,0.3-3.4,0.4c-3.6,0.2-4.9,1.5-4.9,3.3c0,1.6,0.9,2.9,3.2,2.9
		C489.7,40.4,491.6,38.1,491.6,35.5z"/>
	<path class="st0" d="M505.7,19.5h7.9v4.1c1.5-2.7,4-4.6,8.6-4.6c6.3,0,11.3,5.3,11.3,13.6c0,8.2-5.1,13.5-11.3,13.5
		c-4.3,0-6.6-1.9-8.4-4.6v15.4h-8.1V19.5z M525,32.5c0-4.5-2.4-7-5.8-7c-3.4,0-5.8,2.5-5.8,7c0,4.5,2.4,7.1,5.8,7.1
		C522.6,39.6,525,37,525,32.5z"/>
	<path class="st0" d="M536.9,4.5h8.1v19.3c1.2-2.7,4.5-4.9,8.5-4.9c5.6,0,8.8,3.8,8.8,10.2v16.1h-8.1V31c0-3-1.3-5.1-4.3-5.1
		c-3.4,0-5,2.4-5,5.5v13.9h-8.1V4.5z"/>
</g>
</svg>
