<?xml version="1.0" encoding="utf-8"?>
<!-- Generator: Adobe Illustrator 20.1.0, SVG Export Plug-In . SVG Version: 6.00 Build 0)  -->
<svg version="1.1" id="Layer_1" xmlns="http://www.w3.org/2000/svg" xmlns:xlink="http://www.w3.org/1999/xlink" x="0px" y="0px"
	 viewBox="0 0 180.3 53.5" fill="#ffffff" style="enable-background:new 0 0 180.3 53.5;" xml:space="preserve">
<path d="M3.1,48.1L22.6,2.5h9.2l19.4,45.6H40.7l-4.1-10.1H17.5l-4.1,10.1H3.1z M21,29.2h12l-6-14.7L21,29.2z"/>
<path d="M53.7,35.9V13.4h9.8v19.4c0,2.3,0.5,4.1,1.6,5.3c1,1.2,2.5,1.8,4.4,1.8s3.4-0.6,4.5-1.8c1.1-1.2,1.6-2.9,1.6-5.3V13.4h9.8
	v34.7h-9.8v-4.9c-0.6,0.7-1.2,1.4-1.8,2.1c-0.7,0.7-1.4,1.3-2.2,1.8c-0.8,0.5-1.7,0.9-2.7,1.2c-1,0.3-2.1,0.4-3.3,0.4
	c-3.7,0-6.6-1.1-8.7-3.4C54.7,43,53.7,39.9,53.7,35.9z"/>
<path d="M91.6,30.8v-0.1c0-2.9,0.4-5.4,1.3-7.7c0.9-2.2,2-4.1,3.5-5.6c1.4-1.5,3.1-2.7,5-3.5s3.9-1.2,6-1.2c2.6,0,4.8,0.5,6.5,1.5
	c1.7,1,3.1,2.2,4.3,3.6V0.8h9.8v47.3h-9.8v-5c-1.2,1.6-2.7,3-4.4,4c-1.7,1-3.9,1.6-6.4,1.6c-2,0-4-0.4-5.9-1.2
	c-1.9-0.8-3.6-1.9-5.1-3.5c-1.5-1.5-2.6-3.4-3.5-5.6C92.1,36.3,91.6,33.7,91.6,30.8z M101.4,30.9c0,1.4,0.2,2.8,0.7,3.9
	c0.5,1.2,1.1,2.2,1.8,3.1c0.8,0.8,1.7,1.5,2.7,2c1,0.5,2.1,0.7,3.3,0.7s2.3-0.2,3.3-0.7c1-0.5,1.9-1.1,2.7-2
	c0.8-0.8,1.4-1.9,1.8-3.1c0.5-1.2,0.7-2.5,0.7-3.9v-0.1c0-1.4-0.2-2.8-0.7-3.9c-0.5-1.2-1.1-2.2-1.8-3.1c-0.8-0.8-1.6-1.5-2.7-2
	c-1-0.5-2.1-0.7-3.3-0.7s-2.3,0.2-3.3,0.7c-1,0.5-1.9,1.1-2.7,2c-0.8,0.8-1.4,1.9-1.8,3c-0.5,1.2-0.7,2.5-0.7,4V30.9z"/>
<path d="M136.7,48.1V13.4h9.8v7c1-2.4,2.4-4.3,4.1-5.7c1.6-1.3,3.7-2,6.3-2c0.2,0,0.5,0,0.7,0v10.3h-0.5c-3.3,0-5.9,1-7.7,3
	s-2.8,5.1-2.8,9.2v12.8H136.7z"/>
<path d="M164.9,9.6V0.7h10.4v8.9H164.9z M165.2,48.1V13.4h9.8v34.7H165.2z"/>
</svg>
