<?xml version="1.0" encoding="utf-8"?>
<!-- Generator: Adobe Illustrator 20.1.0, SVG Export Plug-In . SVG Version: 6.00 Build 0)  -->
<svg version="1.1" id="Layer_1_copy" xmlns="http://www.w3.org/2000/svg" xmlns:xlink="http://www.w3.org/1999/xlink" x="0px"
	 y="0px" viewBox="0 0 416.6 337.9" style="enable-background:new 0 0 416.6 337.9;" xml:space="preserve">
<style type="text/css">
	.st0{fill:#ECDA92;}
	.st1{fill:#FFFFFF;}
	.st2{fill:#28211D;}
	.st3{opacity:0.39;}
	.st4{fill:#662B1C;}
	.st5{fill:#3B2E25;}
	.st6{opacity:0.7;fill:#C1B273;}
	.st7{opacity:0.55;fill:#C1B273;}
</style>
<path class="st0" d="M271.5,256.1c-3.3,1.7-38.2,29.7-38.2,29.7c-16.9,13.6-27.9,9.3-27.9,9.3l-21.2,2.5c-31.4,9.3-45-11.8-45-11.8
	L-0.4,332.5l0.8-131.3l152.4-32.3l23.7-27.9c9.3-8.5,17.8-33,17.8-33c-4.3-1.7-12.8-22.1-12.8-22.1c-4.3-9.3,2.5-32.2,2.5-32.2
	C187.5,34,210.4,1,210.4,1c16.9-0.8,27.1,59.3,29.7,67.9s-7.6,22.8-7.6,22.8c9.3,18.6,27.1,1.7,27.1,1.7
	c14.4-8.5,61.9-49.1,61.9-49.1c20.4-16.9,22.9,0,25.4,2.5c2.5,2.5-18.6,37.3-18.6,37.3c-25.4,44,9.3,33,13.6,31.4
	c4.3-1.7,13.6-25.4,13.6-25.4c6.8-22.1,25.9-6.7,27.1-0.8c2.5,12.8-9.2,41.5-9.2,41.5c-6,11-19.7,34.7-19.7,34.7
	c-4.3,10.1-25.4,28.9-25.4,28.9c-2.5,11,2.5,23.7,2.5,23.7c5.1,3.3,27.8,10,27.8,10c54.1,9.6,57.8,46.8,56.1,50.3
	c-1.7,3.3-16.9,7.6-16.9,7.6c-14.5,9-58.3-8.8-58.3-8.8c-12.8-5.1-29-24.3-29-24.3S274.8,254.4,271.5,256.1z"/>
<path class="st1" d="M272.9,232.1c1.7,6.8,20.4,10.1,20.4,10.1l9.2-6.1c1.7-34.7-19.4-31.4-19.4-31.4S271.3,225.4,272.9,232.1z"/>
<path class="st1" d="M194.3,156.2c24.6,6.8,37.3-16.1,37.3-16.1c0-15.3-28.9-19.4-28.9-19.4C191.8,146,194.3,156.2,194.3,156.2z"/>
<ellipse class="st2" cx="212.9" cy="245.5" rx="11" ry="8.1"/>
<ellipse class="st2" cx="186.6" cy="213.5" rx="8.1" ry="10.6"/>
<path class="st1" d="M147.6,276.2c12.8,20.4,41.5,11.8,41.5,11.8c-37.3,0.8-41.9-40.1-41.9-40.1l-1.9-34.7
	C130.2,255.6,147.6,276.2,147.6,276.2z"/>
<g class="st3">
	<path class="st4" d="M173.3,162l-12.8,2.1c0,0,2,18.8-5.7,22.8C146.9,190.9,168.2,187.3,173.3,162z"/>
	<path class="st4" d="M293.3,118.1l24.9-7.7c0,0,11.7,10.8,17.4,14.1c8.3,4.8-2.9,14.4-5.7,20.2c-2.7,5.9-16.5,11.4-16.5,11.4
		l-25.3-6.7C288.1,149.2,284.5,128.9,293.3,118.1z"/>
	<path class="st4" d="M218.3,273.5c0,0,17-1.2,27.4-7.7c10.4-6.5,27.3-6.8,22.5-15.4c-4.8-8.6-15-8.9-19.4-2.3
		c-4.4,6.7-16.5,12.2-16.5,12.2L218.3,273.5z"/>
	<path class="st4" d="M97.8,216.6l33.3-7.5c0,0,1.1,21.3-11.8,29.3c-12.9,8-18.4,18.9-24.2,14.5C89.3,248.5,93,236.8,97.8,216.6z"/>
	<path class="st4" d="M124.2,271.5c0,0-30.6,1.6-36.2,20.1c0,0-7.1,10,4.9,6.1s41.1-13.2,39.5-18.4
		C130.8,274.3,124.2,271.5,124.2,271.5z"/>
	<path class="st4" d="M103.1,179.4c0,0-13.2,15.7-12.8,28.5c0.5,12.8-66.3,34.5-72.1,29.3s-9.8-37.1-9.8-37.1L103.1,179.4z"/>
	<path class="st4" d="M78.1,225.2L34.2,246c0,0,2,18.8-0.9,31.4s2.7,23.8,12.9,21.6c10.2-2.3,27.1-27.1,27.1-30.6
		C73.5,265,78.1,225.2,78.1,225.2z"/>
</g>
<ellipse class="st5" cx="212.4" cy="142.7" rx="11.4" ry="12.2"/>
<ellipse class="st5" cx="290" cy="227.1" rx="11.4" ry="12.2"/>
<path class="st6" d="M209.7,89.3c0,0,9.9-9.1,10.6-18.3s-3-42.8-3.8-46.5c-0.8-3.8-5.9-17.1-5.9-17.1s-19.7,31.2-17.9,34.5
	c0,0-13,37.3-1.7,51c0,0,3.9,2.1,8,2.4C203.1,95.6,209.7,89.3,209.7,89.3z"/>
<path class="st7" d="M333.9,257.3c0,0,4.5,1.8,12,8.2c19.9,16.9,45,11.7,49.1,12c12.5,1,13-3.2,13-3.2s-6.7-24-13.7-24
	c0,0-17.2-16.6-63.3-18.1c0,0-0.2,6.9-1.6,10.5C327.9,246.2,333.9,257.3,333.9,257.3z"/>
</svg>
