<?xml version="1.0" encoding="utf-8"?>
<!-- Generator: Adobe Illustrator 20.1.0, SVG Export Plug-In . SVG Version: 6.00 Build 0)  -->
<svg version="1.1" id="Layer_1" xmlns="http://www.w3.org/2000/svg" xmlns:xlink="http://www.w3.org/1999/xlink" x="0px" y="0px"
	 viewBox="0 0 55 59" style="enable-background:new 0 0 55 59;" xml:space="preserve">
<style type="text/css">
	.st0{fill-rule:evenodd;clip-rule:evenodd;}
</style>
<path class="st0" d="M47,21.4c0,10.2-8.3,18.5-18.5,18.5s-18.5-8.3-18.5-18.5S18.3,2.9,28.5,2.9S47,11.2,47,21.4z M40.2,27
	c-1.6,3.3-4.5,5.7-8.2,6.9c-6.9,2.2-13.3-2.6-15.3-6.9C24.6,27,32.4,27,40.2,27z"/>
<path class="st0" d="M4,55.1h48.7c0,0-1.7-11.9-13.8-14.6c0,0-10.2,6-21.2,0.1C17.7,40.6,7.6,42.6,4,55.1z"/>
</svg>
